<svg height="480pt" viewBox="0 0 480.05344 480" width="480pt" xmlns="http://www.w3.org/2000/svg"><path d="m280.054688 8.027344c-106.039063 0-192 85.960937-192 192v112h144v-112c0-26.511719 21.488281-48 48-48 26.507812 0 48 21.488281 48 48v272h144v-272c0-106.039063-85.960938-192-192-192zm0 0" fill="#e76b93"/><path d="m280.054688 56.027344c-79.53125 0-144 64.46875-144 144v112h96v-112c0-26.511719 21.488281-48 48-48 26.507812 0 48 21.488281 48 48v272h96v-272c0-79.53125-64.472657-144-144-144zm0 0" fill="#fcbc04"/><path d="m280.054688 104.027344c-53.019532 0-96 42.980468-96 96v112h48v-112c0-26.511719 21.488281-48 48-48 26.507812 0 48 21.488281 48 48v272h48v-272c0-53.019532-42.980469-96-96-96zm0 0" fill="#a1d51c"/><path d="m224.054688 288.027344c-8.550782-.011719-16.984376 1.960937-24.640626 5.757812-12.207031-22.570312-35.507812-36.941406-61.15625-37.714844-25.652343-.773437-49.777343 12.160157-63.324218 33.957032-3.484375-1.285156-7.164063-1.960938-10.878906-2-17.675782 0-32 14.328125-32 32v3.199218c-16.386719 6.90625-26.25 23.796876-24.203126 41.464844 2.042969 17.664063 15.503907 31.855469 33.039063 34.832032 17.53125 2.976562 34.921875-5.976563 42.683594-21.976563 26.511719 27.898437 70.28125 30.015625 99.359375 4.800781 17.472656 18.617188 45.324218 23.058594 67.71875 10.804688 22.398437-12.257813 33.667968-38.113282 27.40625-62.863282-6.261719-24.75-28.472656-42.132812-54.003906-42.261718zm0 0" fill="#57b7eb"/><path d="m240.054688 368.027344c-15.457032-.011719-30.222657-6.410156-40.800782-17.679688-29.078125 25.214844-72.847656 23.097656-99.359375-4.800781-8.230469 16.605469-26.789062 25.382813-44.84375 21.210937-18.058593-4.167968-30.886719-20.199218-30.996093-38.730468-13.394532 9.886718-19.265626 27.03125-14.742188 43.050781s18.496094 27.566406 35.082031 28.984375c16.585938 1.421875 32.316407-7.578125 39.5-22.597656 26.511719 27.902344 70.28125 30.015625 99.359375 4.800781 14.777344 15.539063 37.132813 21.273437 57.566406 14.769531 20.433594-6.503906 35.359376-24.105468 38.433594-45.328125-10.382812 10.425781-24.484375 16.296875-39.199218 16.320313zm0 0" fill="#4891d3"/><g fill="#39519d"><path d="m224.054688 408.027344c-4.417969 0-8-3.582032-8-8 0-4.417969 3.582031-8 8-8 19.8125.054687 37.625-12.074219 44.835937-30.53125 7.210937-18.453125 2.34375-39.445313-12.257813-52.839844-14.601562-13.394531-35.933593-16.441406-53.699218-7.667969-1.886719 1.011719-4.097656 1.222657-6.140625.59375-2.046875-.632812-3.753907-2.058593-4.738281-3.957031-10.851563-20.058594-31.558594-32.832031-54.355469-33.523438-22.796875-.695312-44.238281 10.796876-56.285157 30.164063-2 3.203125-5.972656 4.574219-9.519531 3.28125-2.511719-.941406-5.160156-1.453125-7.839843-1.519531-13.257813 0-24 10.746094-24 24v1.039062 1.441406c.265624 3.4375-1.699219 6.664063-4.882813 8-14.160156 5.917969-22.125 21.058594-18.976563 36.082032 3.144532 15.023437 16.511719 25.695312 31.859376 25.4375 12.195312-.050782 23.300781-7.03125 28.640624-18 1.152344-2.34375 3.375-3.980469 5.957032-4.378906 2.582031-.398438 5.195312.492187 7 2.378906 23.539062 24.589844 62.207031 26.453125 88 4.238281 3.335937-2.914063 8.40625-2.574219 11.320312.761719 2.917969 3.335937 2.578125 8.402344-.757812 11.320312-29.398438 25.574219-72.945313 26.25-103.121094 1.597656-8.941406 11.367188-22.582031 18.023438-37.039062 18.082032-21.746094.023437-40.792969-14.574219-46.421876-35.582032-5.625-21.003906 3.574219-43.167968 22.421876-54.019531.859374-21.464843 18.515624-38.417969 40-38.398437 2.527343-.011719 5.050781.257812 7.519531.800781 15.433593-21.085937 40.1875-33.304687 66.308593-32.730469 26.121094.574219 50.320313 13.867188 64.8125 35.609375 24.019532-8.519531 50.804688-1.972656 68.1875 16.664063 17.386719 18.640625 22.054688 45.8125 11.886719 69.183594-10.164062 23.371093-33.230469 38.484374-58.714843 38.472656zm0 0"/><path d="m328.054688 480.027344c-4.417969 0-8-3.582032-8-8v-272c0-22.09375-17.910157-40-40-40-22.09375 0-40 17.90625-40 40v48.640625c0 4.417969-3.582032 8-8 8-4.417969 0-8-3.582031-8-8v-48.640625c0-30.929688 25.070312-56 56-56 30.925781 0 56 25.070312 56 56v272c0 4.417968-3.582032 8-8 8zm0 0"/><path d="m376.054688 480.027344c-4.417969 0-8-3.582032-8-8v-272c0-48.601563-39.398438-88-88-88-48.601563 0-88 39.398437-88 88v34.558594c0 4.417968-3.582032 8-8 8-4.417969 0-8-3.582032-8-8v-34.558594c0-57.4375 46.5625-104 104-104s104 46.5625 104 104v272c0 4.417968-3.582032 8-8 8zm0 0"/><path d="m424.054688 480.027344c-4.417969 0-8-3.582032-8-8v-272c0-75.113282-60.890626-136-136-136-75.113282 0-136 60.886718-136 136v16c0 4.417968-3.582032 8-8 8-4.417969 0-8-3.582032-8-8v-16c0-83.949219 68.050781-152 152-152 83.945312 0 152 68.050781 152 152v272c0 4.417968-3.582032 8-8 8zm0 0"/><path d="m472.054688 480.027344c-4.417969 0-8-3.582032-8-8v-272c0-101.621094-82.378907-184-184-184-101.621094 0-184 82.378906-184 184v34.558594c0 4.417968-3.582032 8-8 8-4.417969 0-8-3.582032-8-8v-34.558594c0-110.457032 89.542968-200.0000002 200-200.0000002 110.457031 0 200 89.5429682 200 200.0000002v272c0 4.417968-3.582032 8-8 8zm0 0"/></g></svg>